<mxfile host="app.diagrams.net" modified="2023-09-28T16:56:41.879Z" agent="Mozilla/5.0 (Windows NT 10.0; Win64; x64) AppleWebKit/537.36 (KHTML, like Gecko) Chrome/117.0.0.0 Safari/537.36" version="21.8.2" etag="hxZlUGfuxrPn_G0Lst0G" type="github">
  <diagram name="Page-1" id="JLP_lDpNHqZbZIZJVBtx">
    <mxGraphModel>
      <root>
        <mxCell id="0" />
        <mxCell id="1" parent="0" />
      </root>
    </mxGraphModel>
  </diagram>
</mxfile>
